<svg id="visual" viewBox="0 0 900 600" width="900" height="600" xmlns="http://www.w3.org/2000/svg" xmlns:xlink="http://www.w3.org/1999/xlink" version="1.1"><path d="M0 169L82 169L82 163L164 163L164 235L245 235L245 103L327 103L327 181L409 181L409 235L491 235L491 85L573 85L573 235L655 235L655 127L736 127L736 205L818 205L818 211L900 211L900 187L900 0L900 0L818 0L818 0L736 0L736 0L655 0L655 0L573 0L573 0L491 0L491 0L409 0L409 0L327 0L327 0L245 0L245 0L164 0L164 0L82 0L82 0L0 0Z" fill="#6978fa"></path><path d="M0 247L82 247L82 223L164 223L164 337L245 337L245 187L327 187L327 241L409 241L409 283L491 283L491 205L573 205L573 307L655 307L655 181L736 181L736 277L818 277L818 271L900 271L900 289L900 185L900 209L818 209L818 203L736 203L736 125L655 125L655 233L573 233L573 83L491 83L491 233L409 233L409 179L327 179L327 101L245 101L245 233L164 233L164 161L82 161L82 167L0 167Z" fill="#5666d6"></path><path d="M0 361L82 361L82 367L164 367L164 463L245 463L245 463L327 463L327 367L409 367L409 367L491 367L491 415L573 415L573 397L655 397L655 433L736 433L736 391L818 391L818 373L900 373L900 481L900 287L900 269L818 269L818 275L736 275L736 179L655 179L655 305L573 305L573 203L491 203L491 281L409 281L409 239L327 239L327 185L245 185L245 335L164 335L164 221L82 221L82 245L0 245Z" fill="#4455b2"></path><path d="M0 505L82 505L82 511L164 511L164 511L245 511L245 529L327 529L327 505L409 505L409 547L491 547L491 523L573 523L573 547L655 547L655 529L736 529L736 565L818 565L818 529L900 529L900 547L900 479L900 371L818 371L818 389L736 389L736 431L655 431L655 395L573 395L573 413L491 413L491 365L409 365L409 365L327 365L327 461L245 461L245 461L164 461L164 365L82 365L82 359L0 359Z" fill="#344490"></path><path d="M0 601L82 601L82 601L164 601L164 601L245 601L245 601L327 601L327 601L409 601L409 601L491 601L491 601L573 601L573 601L655 601L655 601L736 601L736 601L818 601L818 601L900 601L900 601L900 545L900 527L818 527L818 563L736 563L736 527L655 527L655 545L573 545L573 521L491 521L491 545L409 545L409 503L327 503L327 527L245 527L245 509L164 509L164 509L82 509L82 503L0 503Z" fill="#25336f"></path></svg>